<!-- icon666.com - MILLIONS vector ICONS FREE --><svg id="Layer_1" enable-background="new 0 0 450 450" viewBox="0 0 450 450" xmlns="http://www.w3.org/2000/svg"><g clip-rule="evenodd" fill-rule="evenodd"><g><path d="m395.3 168.4v15.6h-15.6c-47.4 0-85.9-38.4-85.9-85.9v-14.7c.2-.3.4-.6.5-.9h15c47.5.1 86 38.5 86 85.9z" fill="#5eac24"></path><path d="m259.2 276.7c-2.5-12.8-3.8-24.8-4.5-35.6h.4c10.6-5 19.1-4.8 25.9-4.9 7.8-.1 21.6-.3 36.7 7.5 14 7.3 21.5 17.5 24.7 22 9.4 13.1 11.9 25.7 13.3 32.7 1.1 5.5 2.7 16.8.6 30.8-1.5 10-5.4 25.5-16.4 40.8-4.5 6.2-12.5 17.1-27.2 25.1-19.4 10.6-38.1 9.4-45.5 8.8-26.7-2.1-44.9-15.9-51.9-22-3.4-2.9-6.3-5.9-8.9-8.9l-.1-.1c10-11.6 14.6-22.8 16.6-28.1 6-15.2 6.6-28 6.6-32.4.2-9.3-1.1-15.8-1.6-17.9-1.1-4.9-2.4-11-6.1-17.4 2 1.1 8 3.5 11.8 4.2 1.1.2 2.2.4 3.2.5 9.6 1 17.1-2.6 19.3-3.6.9-.3 2-.9 3.1-1.5z" fill="#c63734"></path><path d="m232.1 251.2c-1.7-17.7-1.5-32.9-.7-44.6.8-12.1 4.7-56.2 29.8-106.4 2-3.9 4-7.8 6.3-11.8 5.2-9.3 12-19.1 18-27.4 4.1-5.6 7.9-10.4 10.5-13.8h23.4c-5.8 7.4-16.6 21.5-25.1 35.4h-.5v.9c-1 1.7-2 3.3-2.9 4.9-30.8 54.9-35.2 105.2-36.1 118.2-.6 9.4-.9 21.1-.1 34.5.6 10.8 2 22.7 4.5 35.6-1.2.7-2.2 1.2-3.1 1.6-2.2 1.1-9.6 4.6-19.3 3.6-.4-1.8-1.1-5.3-1.1-5.4-1.6-8.9-2.8-17.3-3.6-25.3z" fill="#6dc82a" style="fill: rgb(137, 247, 59);"></path><path d="m285.6 61c-6 8.2-12.8 18.1-18 27.4-2.2 4-4.3 7.9-6.3 11.8-43.5 35.9-66 76.3-71.3 87-7.5 14.9-16.8 36.8-22.5 64.9-.8.1-1.5.3-2.1.4-2.3.5-3.7.9-12.7 3.8-5.3 1.7-8.2 2.6-9.9 3.2.1-.3 3.1-16.7 3.2-16.9.3-1.7.7-3.3 1.1-4.9 5.8-25.5 14.3-45.5 21.3-59.4 5.7-11.3 28.8-54.8 77.9-92.3 13.9-10.7 30-19.9 39.3-25z" fill="#6dc82a" style="fill: rgb(137, 247, 59);"></path><path d="m235.8 276.5c0 .1.7 3.6 1.1 5.4-1-.1-2.1-.3-3.2-.5-3.8-.8-9.8-3.2-11.8-4.2-.6-1.1-1.3-2.2-2.1-3.3-4.5-6.4-9.6-10-13.4-12.7v-.1c4.6-3.1 12.4-8.2 22.5-9.6 1.1-.2 2.2-.3 3.2-.3.8 8 2 16.4 3.7 25.3z" fill="#c63734"></path><path d="m142.8 259.5c1.8-.6 4.6-1.5 9.9-3.2 9-2.8 10.3-3.3 12.7-3.8.6-.1 1.3-.3 2.1-.4 3.7-.7 9.5-1.5 16.3-.5 10.2 1.4 17.2 6 21.8 9.1.3.2.5.4.8.5 3.9 2.6 8.9 6.3 13.4 12.7.8 1.1 1.5 2.2 2.1 3.3 3.7 6.5 5.1 12.5 6.1 17.4.4 2.1 1.8 8.6 1.6 17.9-.1 4.4-.7 17.2-6.6 32.4-2.1 5.2-6.6 16.5-16.6 28.1-2.6 3-5.6 6.1-9 9-7 6.1-25.1 19.9-51.9 22-7.5.6-26.1 1.8-45.6-8.8-14.7-8-22.8-18.9-27.2-25.1-11-15.4-15-30.8-16.4-40.8-2.1-14-.4-25.3.6-30.8 1.3-7 3.9-19.6 13.3-32.7 3.2-4.5 10.7-14.7 24.7-22 15.1-7.9 28.9-7.7 36.7-7.5 4.2.1 9.6.2 15.5 1.5-.4 1.6-.7 3.3-1.1 4.9-.1 0-3.2 16.5-3.2 16.8z" fill="#ea473b"></path></g><g fill="#333"><path d="m137.1 410.1c-9.7 0-24.7-1.5-40-9.9-16.2-8.8-24.9-21-29.1-26.8-11.5-16.1-15.9-32.4-17.5-43.4-1.6-10.8-1.4-22.1.7-32.7 1.3-6.7 3.9-20.5 14.3-34.9 3.1-4.3 11.2-15.7 26.7-23.7 16.4-8.5 31.4-8.3 39.4-8.2 5.1.1 10.6.3 16.6 1.6 3.1.7 5.1 3.7 4.4 6.8s-3.7 5.1-6.8 4.4c-5.3-1.1-10.2-1.3-14.4-1.4-7.5-.1-20.1-.3-33.9 6.9-13 6.8-20 16.6-22.7 20.2-8.8 12.4-11.1 24.1-12.3 30.4-1.8 9.3-2 19.3-.6 28.9 1.4 9.7 5.2 24.1 15.4 38.3 4 5.5 11.4 15.9 25.3 23.4 18.3 10 35.8 8.6 42.3 8.1 23.7-1.9 40.6-13.7 48.6-20.6 15.7-13.6 21.8-29 24-34.8 5.2-13.1 6.1-24.7 6.2-30.4.1-5.8-.4-11.7-1.5-16.6-1.2-5.6-2.6-11.9-7.3-18.6-4.3-6.1-9.2-9.3-12.7-11.7-4.1-2.8-10.4-6.9-19.4-8.2-7.4-1-13.4.3-16.4.9-2 .4-3.2.8-11.4 3.4l-.8.2c-4.8 1.5-7.5 2.4-9.3 3-2.3.8-3.3 1.1-5 1.5-6.9 1.7-14.4 2.2-22.2 1.4-3.2-.3-5.5-3.2-5.1-6.3.3-3.2 3.2-5.5 6.3-5.1 6.5.7 12.6.3 18.3-1.1 1.3-.3 2-.5 4.2-1.3 1.8-.6 4.6-1.5 9.4-3l.8-.2c8.4-2.7 9.9-3.1 12.4-3.7 3.3-.7 11-2.3 20.3-1 11.7 1.6 19.8 7.1 24.2 10 3.8 2.6 10.2 6.8 15.7 14.7 6.1 8.6 7.9 16.8 9.1 22.8.9 4.1 1.9 10.7 1.7 19.2-.2 7.9-1.5 20.3-7 34.4-2.3 5.9-9.4 23.8-27.2 39.3-9 7.8-28.2 21.3-55.2 23.4-1.6.1-4.7.4-8.5.4z" fill="#333"></path><path d="m206.4 266.9c-1.9 0-3.7-.9-4.8-2.6-1.8-2.6-1.1-6.2 1.6-8 4.6-3.1 13.3-8.9 24.9-10.5 1.4-.2 2.8-.3 4.3-.4 3.2-.2 5.9 2.3 6.1 5.4s-2.3 5.9-5.4 6.1c-1.2.1-2.3.2-3.4.3-9 1.3-16 5.9-20.1 8.7-1 .7-2.1 1-3.2 1z" fill="#333"></path><path d="m275.5 410.1c-3.8 0-6.9-.2-8.8-.4-27-2.1-46.2-15.6-55.2-23.4-3.4-2.9-6.6-6.1-9.5-9.5-2.1-2.4-1.8-6 .6-8.1s6-1.8 8.1.6c2.6 3 5.4 5.8 8.4 8.4 7.9 6.9 24.8 18.7 48.5 20.6 6.6.5 24 1.9 42.3-8.1 13.9-7.6 21.3-17.9 25.3-23.4 10.2-14.2 14-28.7 15.4-38.3s1.2-19.5-.6-28.9c-1.2-6.3-3.5-18-12.3-30.4-2.6-3.7-9.6-13.4-22.6-20.2-13.8-7.2-26.4-7-33.9-6.9-.4 0-.8 0-1.2 0-6.3.1-13.5.2-22.4 4.4-2.9 1.4-6.3.1-7.7-2.8s-.1-6.3 2.8-7.7c11.2-5.3 20.4-5.4 27.2-5.5h1.1c8.1-.1 23.1-.3 39.4 8.2 15.5 8.1 23.6 19.5 26.7 23.7 10.3 14.4 13 28.3 14.3 34.9 2 10.6 2.3 21.9.7 32.7-1.6 10.9-5.9 27.3-17.5 43.4-4.2 5.8-12.9 18-29.1 26.8-15.3 8.3-30.2 9.9-40 9.9z" fill="#333"></path><path d="m240.2 287.8c-2.9 0-5.5-.3-7.7-.8-4.5-.9-11-3.6-13.3-4.8-2.8-1.5-3.9-5-2.4-7.8s4.9-3.9 7.8-2.4c1.8.9 7.2 3.1 10.3 3.7 4.3.9 11 1.1 18.8-2.7 3-1.5 8-3.9 11-9.5 1.2-2.2 1.9-4.7 2.2-7.3.3-3.2 3.1-5.5 6.3-5.2s5.5 3.1 5.2 6.3c-.4 4.1-1.6 8-3.5 11.6-4.8 8.9-12.5 12.6-16.2 14.4-6.9 3.5-13.2 4.5-18.5 4.5z" fill="#333"></path><path d="m237.1 282.4c-2.7 0-5.1-1.9-5.6-4.6 0-.2-.3-1.4-.6-2.8-.3-1.7-.7-3.5-.7-3.6-4.6-23.1-6-46.4-4.4-69.5 1-13.8 3.3-28.4 7-43.2 6.4-26.1 16.5-51.1 29.8-74.3 8.4-14.6 20.6-30.3 29-40.8 1.1-1.4 2.7-2.2 4.5-2.2h23.4c2.2 0 4.2 1.3 5.2 3.3s.7 4.4-.7 6.1c-8.2 10.2-20 25.4-28 39.3-28.2 48.9-34.1 95-35.3 112.5-1.6 22.2-.1 44.7 4.3 67 .6 3.1-1.4 6.2-4.5 6.8s-6.2-1.4-6.8-4.5c-4.6-23.2-6.2-46.8-4.5-70 1-13.8 3.3-28.4 7-43.2 6.4-26.1 16.5-51.1 29.8-74.3 6.2-10.7 14.4-22 21.7-31.4h-8.8c-8.1 10.1-18.8 24.2-26.3 37.2-28.2 48.9-34.1 95-35.3 112.5-1.5 22-.1 44.4 4.2 66.5 0 .2.4 1.9.7 3.5.3 1.4.6 2.8.6 2.9.6 3.1-1.4 6.2-4.5 6.8-.4-.1-.8 0-1.2 0z" fill="#333"></path><path d="m167.4 257.8c-.4 0-.8 0-1.2-.1-3.1-.6-5.1-3.7-4.5-6.8 4.8-23.2 12.5-45.5 23-66.3 7.5-14.9 29.6-53.3 71.6-88 2.5-2 6.1-1.7 8.1.8s1.7 6.1-.8 8.1c-40.4 33.3-61.5 70-68.7 84.3-10.1 19.9-17.5 41.2-22 63.4-.4 2.7-2.8 4.6-5.5 4.6z" fill="#333"></path><path d="m142.8 265.2c-.4 0-.8 0-1.2-.1-3.1-.6-5.1-3.7-4.5-6.8.1-.3.8-4.4 1.5-8.1 1.6-8.7 1.6-8.8 1.7-8.9 4.8-23 12.5-45.2 22.9-65.8 6.3-12.4 14.1-24.9 23.2-37.2 16.1-21.6 35-40.8 56.4-57.1 15.1-11.5 30.8-20.5 38.8-24.9 2.8-1.5 6.3-.5 7.8 2.3s.5 6.3-2.3 7.8c-7.7 4.2-22.9 12.9-37.3 24-45 34.3-68.3 74.6-76.3 90.3-10 19.7-17.3 40.9-21.9 62.9-.1.4-.9 4.8-1.6 8.7-1.5 8.1-1.5 8.1-1.5 8.2-.7 2.9-3.1 4.7-5.7 4.7z" fill="#333"></path><path d="m395.3 189.8h-15.6c-12.4 0-24.4-2.4-35.7-7.2-10.9-4.6-20.7-11.2-29.1-19.6s-15-18.2-19.6-29.1c-4.8-11.3-7.2-23.3-7.2-35.7v-15.6c0-3.2 2.6-5.8 5.8-5.8h15.6c12.4 0 24.4 2.4 35.7 7.2 10.9 4.6 20.7 11.2 29.1 19.6s15 18.2 19.6 29.1c4.8 11.3 7.2 23.3 7.2 35.7v15.6c-.1 3.2-2.6 5.8-5.8 5.8zm-95.7-101.5v9.8c0 44.2 35.9 80.1 80.1 80.1h9.8v-9.8c0-44.2-35.9-80.1-80.1-80.1z" fill="#333"></path></g></g></svg>