<!-- icon666.com - MILLIONS vector ICONS FREE --><svg version="1.1" id="Capa_1" xmlns="http://www.w3.org/2000/svg" xmlns:xlink="http://www.w3.org/1999/xlink" x="0px" y="0px" viewBox="0 0 512.001 512.001" style="enable-background:new 0 0 512.001 512.001;" xml:space="preserve"><path style="" d="M346.88,256.8c10.64-2,20.88-3.12,29.52-3.76c-0.64,8.8-1.76,19.36-3.76,30.4l-12.08-0.64 c0.16-0.72,0.24-1.52,0.24-2.32c0-3.12-1.28-6.24-3.52-8.48c-2.24-2.24-5.36-3.36-8.4-3.36L346.88,256.8z" fill="#8AC24A"></path><path style="" d="M357.28,288.96c-2.24,2.32-5.36,3.6-8.48,3.6s-6.24-1.36-8.48-3.52c-0.56-0.56-1.04-1.2-1.52-1.84 c-1.28-2-2-4.32-2-6.72c0-3.12,1.28-6.24,3.52-8.48c2.24-2.24,5.36-3.36,8.56-3.36c3.04,0,6.16,1.12,8.4,3.36 c2.24,2.24,3.52,5.36,3.52,8.48c0,0.8-0.08,1.6-0.24,2.32C360.081,285.12,358.961,287.28,357.28,288.96z" fill="#1D1D1B"></path><g><path style="" d="M357.28,288.96c1.68-1.68,2.8-3.84,3.28-6.16l12.08,0.64c-4.32,24.16-12.72,50.64-28.08,66 c-14.88,14.88-37.44,17.12-54.88,7.2l49.2-49.2c4.72-4.72,4.72-12.32,0-17.04c-0.48-0.48-1.04-0.96-1.6-1.36l1.52-1.84 c0.48,0.64,0.96,1.28,1.52,1.84c2.24,2.16,5.36,3.52,8.48,3.52C351.921,292.56,355.04,291.28,357.28,288.96z" fill="#8AC24A"></path><path style="" d="M348.88,268.64c-3.2,0-6.32,1.12-8.56,3.36c-2.24,2.24-3.52,5.36-3.52,8.48c0,2.4,0.72,4.72,2,6.72 l-1.52,1.84c-4.64-3.2-11.12-2.8-15.36,1.36l-48.72,48.72V293.6c1.92-3.2,4.08-6.16,6.72-8.8c10.96-10.96,28-18.4,45.76-23.28 c7.04-2,14.24-3.52,21.2-4.72L348.88,268.64z" fill="#8AC24A"></path></g><path style="fill: rgb(255, 60, 0);" d="M309.2,32c19.92,0,36.08,16.16,36.08,36.08c0,44.24-57.6,90.64-88.08,110.32 c-30.48-19.76-88.08-66.24-88.08-110.32c0-9.68,3.76-18.72,10.56-25.52c6.8-6.8,15.84-10.56,25.52-10.56c19.84,0,36,16.16,36,36.08 c0,8.8,7.12,16,16,16c8.88,0,16-7.2,16-16C273.2,48.16,289.36,32,309.2,32z" fill="#FE5722"></path><path style="" d="M321.921,290.4c4.24-4.16,10.72-4.56,15.36-1.36c0.56,0.4,1.12,0.88,1.6,1.36 c4.72,4.72,4.72,12.32,0,17.04l-49.2,49.2c17.44,9.92,40,7.68,54.88-7.2c15.36-15.36,23.76-41.84,28.08-66 c2-11.04,3.12-21.6,3.76-30.4c-8.64,0.64-18.88,1.76-29.52,3.76c-6.96,1.2-14.16,2.72-21.2,4.72c-17.76,4.88-34.8,12.32-45.76,23.28 c-2.64,2.64-4.8,5.6-6.72,8.8v45.52L321.921,290.4z M190.081,341.76l49.2,49.2c0.72-1.2,1.36-2.4,1.92-3.6v-37.92 c-2.24-4.8-5.12-9.36-9.12-13.36c-14.24-14.24-38.72-22.56-61.92-27.12c-12.48-2.48-24.64-3.92-34.56-4.64 c0.64,8.88,1.76,19.44,3.76,30.4c4.4,24.24,12.8,50.72,28.08,66c14.88,14.88,37.44,17.12,54.88,7.2l-49.2-49.2 c-4.72-4.72-4.72-12.32,0-16.96C177.76,337.04,185.361,337.04,190.081,341.76z M408.96,236.16c0,3.84,0.88,93.28-41.76,135.92 c-15.12,15.12-35.04,22.72-54.96,22.72c-12.64,0-25.36-3.12-36.8-9.28c-0.56,2.72-1.36,5.36-2.24,8v102.48c0,8.8-7.12,16-16,16 c-8.88,0-16-7.2-16-16v-61.92c-12.64,8-27.04,12-41.44,12c-19.92,0-39.84-7.6-54.96-22.72 c-42.639-42.639-41.759-132.08-41.759-135.919c0.16-8.64,7.2-15.68,15.92-15.76c3.36,0.08,76.88-0.16,122.24,27.68v-93.2 c-26.72-17.041-104.08-72.08-104.08-138.081c0-18.24,7.12-35.28,19.92-48.16C169.92,7.04,186.96,0,205.2,0 c20.8,0,39.52,9.44,52,24.24c12.48-14.799,31.201-24.239,52-24.239c37.52,0,68.08,30.56,68.08,68.08 c0,65.68-78.32,121.52-104.08,138.08v43.28c45.36-29.2,116.4-29.04,119.84-29.04C401.761,220.481,408.8,227.44,408.96,236.16z M345.28,68.08c0-19.92-16.16-36.08-36.08-36.08c-19.84,0-36,16.16-36,36.08c0,8.8-7.12,16-16,16c-8.88,0-16-7.2-16-16 c0-19.92-16.16-36.08-36-36.08c-9.68,0-18.72,3.76-25.52,10.56c-6.8,6.8-10.56,15.84-10.56,25.52c0,44.08,57.6,90.56,88.08,110.32 C287.681,158.721,345.28,112.321,345.28,68.08z" fill="#1D1D1B"></path><path style="" d="M190.081,341.76c-4.72-4.72-12.32-4.72-16.96,0l-1.44-1.44c2.24-2.24,3.52-5.28,3.52-8.56 c0-3.12-1.28-6.24-3.52-8.48c-1.12-1.12-2.48-1.92-3.92-2.56l2.4-11.76c23.2,4.56,47.68,12.88,61.92,27.12c4,4,6.88,8.56,9.12,13.36 v37.92c-0.56,1.2-1.2,2.4-1.92,3.6L190.081,341.76z" fill="#CCDB39"></path><path style="" d="M175.201,331.76c0,3.28-1.28,6.32-3.52,8.56c-2.24,2.24-5.36,3.52-8.48,3.52 c-3.2,0-6.24-1.28-8.48-3.52c-1.68-1.68-2.8-3.84-3.28-6.16c-0.16-0.8-0.24-1.6-0.24-2.4c0-3.12,1.28-6.24,3.52-8.48 c3.36-3.36,8.72-4.16,13.04-2.56c1.44,0.64,2.8,1.44,3.92,2.56C173.921,325.521,175.201,328.641,175.201,331.76z" fill="#1D1D1B"></path><g><path style="" d="M173.12,341.76c-4.72,4.64-4.72,12.24,0,16.96l49.2,49.2c-17.44,9.92-40,7.68-54.88-7.2 c-15.28-15.28-23.68-41.761-28.08-66l12.08-0.56c0.48,2.32,1.6,4.48,3.28,6.16c2.24,2.24,5.28,3.52,8.48,3.52 c3.12,0,6.24-1.28,8.48-3.52L173.12,341.76z" fill="#CCDB39"></path><path style="" d="M135.601,304.321c9.92,0.72,22.08,2.16,34.56,4.64l-2.4,11.76c-4.32-1.6-9.68-0.8-13.04,2.56 c-2.24,2.24-3.52,5.36-3.52,8.48c0,0.8,0.08,1.6,0.24,2.4l-12.08,0.56C137.36,323.76,136.24,313.201,135.601,304.321z" fill="#CCDB39"></path></g></svg>